<mxfile host="65bd71144e" pages="2">
    <diagram id="K7MMtwXwDl5NfztKmLhr" name="Page-1">
        <mxGraphModel dx="3564" dy="449" grid="0" gridSize="10" guides="1" tooltips="1" connect="0" arrows="0" fold="1" page="0" pageScale="1" pageWidth="827" pageHeight="1169" background="none" math="0" shadow="0">
            <root>
                <mxCell id="0"/>
                <mxCell id="1" parent="0"/>
                <mxCell id="139" value="" style="shape=ext;double=1;rounded=1;whiteSpace=wrap;html=1;fillColor=#f5f5f5;fontColor=#333333;strokeColor=#666666;" parent="1" vertex="1">
                    <mxGeometry x="-1401" y="174" width="253" height="432" as="geometry"/>
                </mxCell>
                <mxCell id="35" value="ChaincodeBuildSpec" style="swimlane;fontStyle=0;childLayout=stackLayout;horizontal=1;startSize=26;fillColor=none;horizontalStack=0;resizeParent=1;resizeParentMax=0;resizeLast=0;collapsible=1;marginBottom=0;rounded=0;shadow=0;comic=0;" parent="1" vertex="1">
                    <mxGeometry x="-1801" y="245" width="154" height="188" as="geometry"/>
                </mxCell>
                <mxCell id="37" value="+ Name" style="text;strokeColor=#000000;fillColor=none;align=left;verticalAlign=top;spacingLeft=4;spacingRight=4;overflow=hidden;rotatable=0;points=[[0,0.5],[1,0.5]];portConstraint=eastwest;dashed=1;rounded=0;gradientColor=none;" parent="35" vertex="1">
                    <mxGeometry y="26" width="154" height="26" as="geometry"/>
                </mxCell>
                <mxCell id="132" value="+ Version" style="text;strokeColor=#000000;fillColor=none;align=left;verticalAlign=top;spacingLeft=4;spacingRight=4;overflow=hidden;rotatable=0;points=[[0,0.5],[1,0.5]];portConstraint=eastwest;dashed=1;rounded=0;gradientColor=none;" parent="35" vertex="1">
                    <mxGeometry y="52" width="154" height="26" as="geometry"/>
                </mxCell>
                <mxCell id="39" value="+ Source&#10;    - Minio&#10;    - Git " style="text;strokeColor=#82b366;fillColor=#d5e8d4;align=left;verticalAlign=top;spacingLeft=4;spacingRight=4;overflow=hidden;rotatable=0;points=[[0,0.5],[1,0.5]];portConstraint=eastwest;dashed=1;rounded=0;" parent="35" vertex="1">
                    <mxGeometry y="78" width="154" height="58" as="geometry"/>
                </mxCell>
                <mxCell id="115" value="+ Initiator" style="text;strokeColor=#000000;fillColor=none;align=left;verticalAlign=top;spacingLeft=4;spacingRight=4;overflow=hidden;rotatable=0;points=[[0,0.5],[1,0.5]];portConstraint=eastwest;dashed=1;rounded=0;gradientColor=none;" parent="35" vertex="1">
                    <mxGeometry y="136" width="154" height="26" as="geometry"/>
                </mxCell>
                <mxCell id="144" value="+ Watchers" style="text;strokeColor=#000000;fillColor=none;align=left;verticalAlign=top;spacingLeft=4;spacingRight=4;overflow=hidden;rotatable=0;points=[[0,0.5],[1,0.5]];portConstraint=eastwest;dashed=1;rounded=0;gradientColor=none;" parent="35" vertex="1">
                    <mxGeometry y="162" width="154" height="26" as="geometry"/>
                </mxCell>
                <mxCell id="42" value="ChaincodeBuild" style="swimlane;fontStyle=0;childLayout=stackLayout;horizontal=1;startSize=26;fillColor=#f8cecc;horizontalStack=0;resizeParent=1;resizeParentMax=0;resizeLast=0;collapsible=1;marginBottom=0;rounded=0;shadow=0;comic=0;swimlaneLine=1;glass=0;swimlaneFillColor=none;strokeColor=#b85450;" parent="1" vertex="1">
                    <mxGeometry x="-1801" y="93" width="152" height="130" as="geometry">
                        <mxRectangle x="110" y="120" width="90" height="26" as="alternateBounds"/>
                    </mxGeometry>
                </mxCell>
                <mxCell id="43" value="+ TypeMeta" style="text;strokeColor=#000000;fillColor=none;align=left;verticalAlign=top;spacingLeft=4;spacingRight=4;overflow=hidden;rotatable=0;points=[[0,0.5],[1,0.5]];portConstraint=eastwest;dashed=1;rounded=0;glass=0;" parent="42" vertex="1">
                    <mxGeometry y="26" width="152" height="26" as="geometry"/>
                </mxCell>
                <mxCell id="44" value="+ ObjectMeta" style="text;strokeColor=#000000;fillColor=none;align=left;verticalAlign=top;spacingLeft=4;spacingRight=4;overflow=hidden;rotatable=0;points=[[0,0.5],[1,0.5]];portConstraint=eastwest;dashed=1;rounded=0;glass=0;" parent="42" vertex="1">
                    <mxGeometry y="52" width="152" height="26" as="geometry"/>
                </mxCell>
                <mxCell id="45" value="+ ChaincodeBuildSpec" style="text;strokeColor=#82b366;fillColor=#d5e8d4;align=left;verticalAlign=top;spacingLeft=4;spacingRight=4;overflow=hidden;rotatable=0;points=[[0,0.5],[1,0.5]];portConstraint=eastwest;rounded=0;dashed=1;glass=0;" parent="42" vertex="1">
                    <mxGeometry y="78" width="152" height="26" as="geometry"/>
                </mxCell>
                <mxCell id="46" value="+ ChaincodeBuildStatus" style="text;strokeColor=#82b366;fillColor=#d5e8d4;align=left;verticalAlign=top;spacingLeft=4;spacingRight=4;overflow=hidden;rotatable=0;points=[[0,0.5],[1,0.5]];portConstraint=eastwest;rounded=0;dashed=1;glass=0;" parent="42" vertex="1">
                    <mxGeometry y="104" width="152" height="26" as="geometry"/>
                </mxCell>
                <mxCell id="109" value="" style="endArrow=classic;html=1;rounded=0;entryX=1.013;entryY=0.173;entryDx=0;entryDy=0;entryPerimeter=0;" parent="1" edge="1">
                    <mxGeometry width="50" height="50" relative="1" as="geometry">
                        <mxPoint x="-1803" y="207" as="sourcePoint"/>
                        <mxPoint x="-1881.998" y="206.9960000000001" as="targetPoint"/>
                    </mxGeometry>
                </mxCell>
                <mxCell id="110" value="ChaincodeBuildSpec" style="swimlane;fontStyle=0;childLayout=stackLayout;horizontal=1;startSize=26;fillColor=none;horizontalStack=0;resizeParent=1;resizeParentMax=0;resizeLast=0;collapsible=1;marginBottom=0;rounded=0;shadow=0;comic=0;" parent="1" vertex="1">
                    <mxGeometry x="-2036" y="191" width="154" height="78" as="geometry"/>
                </mxCell>
                <mxCell id="112" value="+ TektonRunID" style="text;strokeColor=#000000;fillColor=none;align=left;verticalAlign=top;spacingLeft=4;spacingRight=4;overflow=hidden;rotatable=0;points=[[0,0.5],[1,0.5]];portConstraint=eastwest;dashed=1;rounded=0;gradientColor=none;" parent="110" vertex="1">
                    <mxGeometry y="26" width="154" height="26" as="geometry"/>
                </mxCell>
                <mxCell id="111" value="+ Condition" style="text;strokeColor=#000000;fillColor=none;align=left;verticalAlign=top;spacingLeft=4;spacingRight=4;overflow=hidden;rotatable=0;points=[[0,0.5],[1,0.5]];portConstraint=eastwest;dashed=1;rounded=0;gradientColor=none;" parent="110" vertex="1">
                    <mxGeometry y="52" width="154" height="26" as="geometry"/>
                </mxCell>
                <mxCell id="127" value="GitCloneTask" style="swimlane;fontStyle=0;childLayout=stackLayout;horizontal=1;startSize=26;fillColor=none;horizontalStack=0;resizeParent=1;resizeParentMax=0;resizeLast=0;collapsible=1;marginBottom=0;rounded=0;shadow=0;comic=0;" parent="1" vertex="1">
                    <mxGeometry x="-1366" y="278" width="154" height="52" as="geometry"/>
                </mxCell>
                <mxCell id="128" value="MinioCloneTask" style="swimlane;fontStyle=0;childLayout=stackLayout;horizontal=1;startSize=26;fillColor=none;horizontalStack=0;resizeParent=1;resizeParentMax=0;resizeLast=0;collapsible=1;marginBottom=0;rounded=0;shadow=0;comic=0;" parent="1" vertex="1">
                    <mxGeometry x="-1366" y="199" width="154" height="52" as="geometry"/>
                </mxCell>
                <mxCell id="129" value="ImageBuild Task" style="swimlane;fontStyle=0;childLayout=stackLayout;horizontal=1;startSize=26;fillColor=none;horizontalStack=0;resizeParent=1;resizeParentMax=0;resizeLast=0;collapsible=1;marginBottom=0;rounded=0;shadow=0;comic=0;" parent="1" vertex="1">
                    <mxGeometry x="-1366" y="435" width="154" height="52" as="geometry"/>
                </mxCell>
                <mxCell id="130" value="ValidateTask" style="swimlane;fontStyle=0;childLayout=stackLayout;horizontal=1;startSize=26;fillColor=none;horizontalStack=0;resizeParent=1;resizeParentMax=0;resizeLast=0;collapsible=1;marginBottom=0;rounded=0;shadow=0;comic=0;" parent="1" vertex="1">
                    <mxGeometry x="-1366" y="354" width="154" height="52" as="geometry"/>
                </mxCell>
                <mxCell id="131" value="ImagePush Task" style="swimlane;fontStyle=0;childLayout=stackLayout;horizontal=1;startSize=26;fillColor=none;horizontalStack=0;resizeParent=1;resizeParentMax=0;resizeLast=0;collapsible=1;marginBottom=0;rounded=0;shadow=0;comic=0;" parent="1" vertex="1">
                    <mxGeometry x="-1364" y="519" width="154" height="52" as="geometry"/>
                </mxCell>
                <mxCell id="133" value="BuildPipeline" style="swimlane;fontStyle=0;childLayout=stackLayout;horizontal=1;startSize=26;fillColor=none;horizontalStack=0;resizeParent=1;resizeParentMax=0;resizeLast=0;collapsible=1;marginBottom=0;rounded=0;shadow=0;comic=0;" parent="1" vertex="1">
                    <mxGeometry x="-1599" y="371" width="154" height="52" as="geometry"/>
                </mxCell>
                <mxCell id="134" value="+ Tasks" style="text;strokeColor=#000000;fillColor=none;align=left;verticalAlign=top;spacingLeft=4;spacingRight=4;overflow=hidden;rotatable=0;points=[[0,0.5],[1,0.5]];portConstraint=eastwest;dashed=1;rounded=0;gradientColor=none;" parent="133" vertex="1">
                    <mxGeometry y="26" width="154" height="26" as="geometry"/>
                </mxCell>
                <mxCell id="140" value="" style="endArrow=classic;html=1;exitX=1.013;exitY=0.423;exitDx=0;exitDy=0;exitPerimeter=0;entryX=1.006;entryY=0.101;entryDx=0;entryDy=0;entryPerimeter=0;edgeStyle=orthogonalEdgeStyle;rounded=0;" parent="1" source="45" target="35" edge="1">
                    <mxGeometry width="50" height="50" relative="1" as="geometry">
                        <mxPoint x="-1551" y="437" as="sourcePoint"/>
                        <mxPoint x="-1501" y="387" as="targetPoint"/>
                        <Array as="points">
                            <mxPoint x="-1623" y="182"/>
                            <mxPoint x="-1623" y="264"/>
                        </Array>
                    </mxGeometry>
                </mxCell>
                <mxCell id="142" value="" style="endArrow=classic;html=1;rounded=0;entryX=0;entryY=0.192;entryDx=0;entryDy=0;entryPerimeter=0;" parent="1" target="133" edge="1">
                    <mxGeometry width="50" height="50" relative="1" as="geometry">
                        <mxPoint x="-1644" y="382" as="sourcePoint"/>
                        <mxPoint x="-1594" y="332" as="targetPoint"/>
                    </mxGeometry>
                </mxCell>
                <mxCell id="143" value="" style="endArrow=classic;html=1;rounded=0;entryX=0.482;entryY=-0.007;entryDx=0;entryDy=0;entryPerimeter=0;edgeStyle=orthogonalEdgeStyle;" parent="1" target="139" edge="1">
                    <mxGeometry width="50" height="50" relative="1" as="geometry">
                        <mxPoint x="-1521" y="372" as="sourcePoint"/>
                        <mxPoint x="-1471" y="322" as="targetPoint"/>
                        <Array as="points">
                            <mxPoint x="-1521" y="134"/>
                            <mxPoint x="-1279" y="134"/>
                        </Array>
                    </mxGeometry>
                </mxCell>
            </root>
        </mxGraphModel>
    </diagram>
    <diagram id="N9aLmfWTt22or_KGCtbo" name="第 2 页">
        <mxGraphModel dx="2276" dy="1910" grid="1" gridSize="10" guides="1" tooltips="1" connect="1" arrows="1" fold="1" page="1" pageScale="1" pageWidth="827" pageHeight="1169" math="0" shadow="0">
            <root>
                <mxCell id="0"/>
                <mxCell id="1" parent="0"/>
                <mxCell id="LcTMq7NTWMzrsomWqzMF-1" value="OrganizationSpec" style="swimlane;fontStyle=0;childLayout=stackLayout;horizontal=1;startSize=26;fillColor=none;horizontalStack=0;resizeParent=1;resizeParentMax=0;resizeLast=0;collapsible=1;marginBottom=0;rounded=0;shadow=0;comic=0;" vertex="1" parent="1">
                    <mxGeometry x="-530" y="-37" width="133" height="104" as="geometry"/>
                </mxCell>
                <mxCell id="LcTMq7NTWMzrsomWqzMF-2" value="+ DisplayName" style="text;strokeColor=#000000;fillColor=none;align=left;verticalAlign=top;spacingLeft=4;spacingRight=4;overflow=hidden;rotatable=0;points=[[0,0.5],[1,0.5]];portConstraint=eastwest;dashed=1;rounded=0;gradientColor=none;" vertex="1" parent="LcTMq7NTWMzrsomWqzMF-1">
                    <mxGeometry y="26" width="133" height="26" as="geometry"/>
                </mxCell>
                <mxCell id="LcTMq7NTWMzrsomWqzMF-3" value="+ Admin" style="text;strokeColor=#000000;fillColor=none;align=left;verticalAlign=top;spacingLeft=4;spacingRight=4;overflow=hidden;rotatable=0;points=[[0,0.5],[1,0.5]];portConstraint=eastwest;dashed=1;rounded=0;gradientColor=none;" vertex="1" parent="LcTMq7NTWMzrsomWqzMF-1">
                    <mxGeometry y="52" width="133" height="26" as="geometry"/>
                </mxCell>
                <mxCell id="LcTMq7NTWMzrsomWqzMF-4" value="+ CARef" style="text;strokeColor=#82b366;fillColor=#d5e8d4;align=left;verticalAlign=top;spacingLeft=4;spacingRight=4;overflow=hidden;rotatable=0;points=[[0,0.5,0,0,0],[1,0.5,0,0,0]];portConstraint=eastwest;dashed=1;rounded=0;" vertex="1" parent="LcTMq7NTWMzrsomWqzMF-1">
                    <mxGeometry y="78" width="133" height="26" as="geometry"/>
                </mxCell>
                <mxCell id="LcTMq7NTWMzrsomWqzMF-5" value="Organization " style="swimlane;fontStyle=0;childLayout=stackLayout;horizontal=1;startSize=26;fillColor=#f8cecc;horizontalStack=0;resizeParent=1;resizeParentMax=0;resizeLast=0;collapsible=1;marginBottom=0;rounded=0;shadow=0;comic=0;swimlaneLine=1;glass=0;swimlaneFillColor=none;strokeColor=#b85450;" vertex="1" parent="1">
                    <mxGeometry x="-720" y="-130" width="130" height="130" as="geometry">
                        <mxRectangle x="110" y="120" width="90" height="26" as="alternateBounds"/>
                    </mxGeometry>
                </mxCell>
                <mxCell id="LcTMq7NTWMzrsomWqzMF-6" value="+ TypeMeta" style="text;strokeColor=#000000;fillColor=none;align=left;verticalAlign=top;spacingLeft=4;spacingRight=4;overflow=hidden;rotatable=0;points=[[0,0.5],[1,0.5]];portConstraint=eastwest;dashed=1;rounded=0;glass=0;" vertex="1" parent="LcTMq7NTWMzrsomWqzMF-5">
                    <mxGeometry y="26" width="130" height="26" as="geometry"/>
                </mxCell>
                <mxCell id="LcTMq7NTWMzrsomWqzMF-7" value="+ ObjectMeta" style="text;strokeColor=#000000;fillColor=none;align=left;verticalAlign=top;spacingLeft=4;spacingRight=4;overflow=hidden;rotatable=0;points=[[0,0.5],[1,0.5]];portConstraint=eastwest;dashed=1;rounded=0;glass=0;" vertex="1" parent="LcTMq7NTWMzrsomWqzMF-5">
                    <mxGeometry y="52" width="130" height="26" as="geometry"/>
                </mxCell>
                <mxCell id="LcTMq7NTWMzrsomWqzMF-8" value="+ OrganizationSpec" style="text;strokeColor=#000000;fillColor=none;align=left;verticalAlign=top;spacingLeft=4;spacingRight=4;overflow=hidden;rotatable=0;points=[[0,0.5],[1,0.5]];portConstraint=eastwest;rounded=0;dashed=1;glass=0;" vertex="1" parent="LcTMq7NTWMzrsomWqzMF-5">
                    <mxGeometry y="78" width="130" height="26" as="geometry"/>
                </mxCell>
                <mxCell id="LcTMq7NTWMzrsomWqzMF-9" value="+ OrganizationStatus" style="text;strokeColor=#000000;fillColor=none;align=left;verticalAlign=top;spacingLeft=4;spacingRight=4;overflow=hidden;rotatable=0;points=[[0,0.5],[1,0.5]];portConstraint=eastwest;rounded=0;dashed=1;glass=0;" vertex="1" parent="LcTMq7NTWMzrsomWqzMF-5">
                    <mxGeometry y="104" width="130" height="26" as="geometry"/>
                </mxCell>
                <mxCell id="LcTMq7NTWMzrsomWqzMF-10" value="CA" style="swimlane;fontStyle=0;childLayout=stackLayout;horizontal=1;startSize=26;fillColor=#f8cecc;horizontalStack=0;resizeParent=1;resizeParentMax=0;resizeLast=0;collapsible=1;marginBottom=0;rounded=0;shadow=0;comic=0;swimlaneLine=1;glass=0;swimlaneFillColor=none;strokeColor=#b85450;" vertex="1" parent="1">
                    <mxGeometry x="-350" y="-50" width="130" height="130" as="geometry">
                        <mxRectangle x="110" y="120" width="90" height="26" as="alternateBounds"/>
                    </mxGeometry>
                </mxCell>
                <mxCell id="LcTMq7NTWMzrsomWqzMF-11" value="+ TypeMeta" style="text;strokeColor=#000000;fillColor=none;align=left;verticalAlign=top;spacingLeft=4;spacingRight=4;overflow=hidden;rotatable=0;points=[[0,0.5],[1,0.5]];portConstraint=eastwest;dashed=1;rounded=0;glass=0;" vertex="1" parent="LcTMq7NTWMzrsomWqzMF-10">
                    <mxGeometry y="26" width="130" height="26" as="geometry"/>
                </mxCell>
                <mxCell id="LcTMq7NTWMzrsomWqzMF-12" value="+ ObjectMeta" style="text;strokeColor=#000000;fillColor=none;align=left;verticalAlign=top;spacingLeft=4;spacingRight=4;overflow=hidden;rotatable=0;points=[[0,0.5],[1,0.5]];portConstraint=eastwest;dashed=1;rounded=0;glass=0;" vertex="1" parent="LcTMq7NTWMzrsomWqzMF-10">
                    <mxGeometry y="52" width="130" height="26" as="geometry"/>
                </mxCell>
                <mxCell id="LcTMq7NTWMzrsomWqzMF-13" value="+ CASpec" style="text;strokeColor=#000000;fillColor=none;align=left;verticalAlign=top;spacingLeft=4;spacingRight=4;overflow=hidden;rotatable=0;points=[[0,0.5],[1,0.5]];portConstraint=eastwest;rounded=0;dashed=1;glass=0;" vertex="1" parent="LcTMq7NTWMzrsomWqzMF-10">
                    <mxGeometry y="78" width="130" height="26" as="geometry"/>
                </mxCell>
                <mxCell id="LcTMq7NTWMzrsomWqzMF-14" value="+ CAStatus" style="text;strokeColor=#000000;fillColor=none;align=left;verticalAlign=top;spacingLeft=4;spacingRight=4;overflow=hidden;rotatable=0;points=[[0,0.5],[1,0.5]];portConstraint=eastwest;rounded=0;dashed=1;glass=0;" vertex="1" parent="LcTMq7NTWMzrsomWqzMF-10">
                    <mxGeometry y="104" width="130" height="26" as="geometry"/>
                </mxCell>
                <mxCell id="LcTMq7NTWMzrsomWqzMF-15" style="edgeStyle=orthogonalEdgeStyle;rounded=0;orthogonalLoop=1;jettySize=auto;html=1;entryX=-0.006;entryY=0.1;entryDx=0;entryDy=0;entryPerimeter=0;" edge="1" parent="1" source="LcTMq7NTWMzrsomWqzMF-4" target="LcTMq7NTWMzrsomWqzMF-10">
                    <mxGeometry relative="1" as="geometry"/>
                </mxCell>
                <mxCell id="LcTMq7NTWMzrsomWqzMF-17" style="edgeStyle=orthogonalEdgeStyle;rounded=0;orthogonalLoop=1;jettySize=auto;html=1;entryX=0.001;entryY=0.134;entryDx=0;entryDy=0;entryPerimeter=0;" edge="1" parent="1" source="LcTMq7NTWMzrsomWqzMF-8" target="LcTMq7NTWMzrsomWqzMF-1">
                    <mxGeometry relative="1" as="geometry"/>
                </mxCell>
            </root>
        </mxGraphModel>
    </diagram>
</mxfile>